<?xml version="1.0" encoding="iso-8859-1"?>
<!-- Generator: Adobe Illustrator 19.0.0, SVG Export Plug-In . SVG Version: 6.00 Build 0)  -->
<svg version="1.1" id="Layer_1" xmlns="http://www.w3.org/2000/svg" xmlns:xlink="http://www.w3.org/1999/xlink" x="0px" y="0px"
	 viewBox="0 0 413.766 413.766" style="enable-background:new 0 0 413.766 413.766;" xml:space="preserve">
<g>
	<path style="fill:#808080;" d="M413.766,297.732v35.7h-17.86c-6.48-5.61-14.92-9-24.15-9s-17.66,3.39-24.14,9h-229.71
		c-6.48-5.61-14.92-9-24.15-9s-17.66,3.39-24.14,9h-26.27v-35.7H413.766z"/>
	<path style="fill:#4D4D4D;" d="M58.341,297.735h-15V53.608c0-7.813-6.357-14.17-14.17-14.17S15,45.795,15,53.608v8.86H0v-8.86
		c0-16.084,13.086-29.17,29.17-29.17s29.17,13.086,29.17,29.17L58.341,297.735L58.341,297.735z"/>
	<circle style="fill:#4D4D4D;" cx="93.758" cy="361.378" r="27.949"/>
	<circle style="fill:#4D4D4D;" cx="371.757" cy="361.378" r="27.949"/>
	<g>
		<rect x="81.482" y="84.022" style="fill:#DD4B1D;" width="310.033" height="71.24"/>
		<rect x="81.482" y="155.262" style="fill:#F4581B;" width="310.033" height="71.24"/>
		<rect x="81.482" y="226.503" style="fill:#DD4B1D;" width="310.033" height="71.23"/>
	</g>
</g>
<g>
</g>
<g>
</g>
<g>
</g>
<g>
</g>
<g>
</g>
<g>
</g>
<g>
</g>
<g>
</g>
<g>
</g>
<g>
</g>
<g>
</g>
<g>
</g>
<g>
</g>
<g>
</g>
<g>
</g>
</svg>
