<?xml version="1.0" encoding="UTF-8" ?>
<!DOCTYPE svg PUBLIC "-//W3C//DTD SVG 1.1//EN" "http://www.w3.org/Graphics/SVG/1.1/DTD/svg11.dtd">
<svg width="852pt" height="332pt" viewBox="0 0 852 332" version="1.1" xmlns="http://www.w3.org/2000/svg">
<path fill="#fefefd" d=" M 0.00 0.00 L 852.00 0.00 L 852.00 332.00 L 0.00 332.00 L 0.00 0.00 Z" />
<path fill="#0a9840" d=" M 88.65 26.63 C 94.41 19.68 102.50 13.44 112.00 13.89 C 122.34 13.38 130.83 20.55 137.11 27.99 C 149.88 43.53 161.53 59.99 171.95 77.21 C 190.70 72.56 209.77 68.90 229.08 67.75 C 238.75 67.20 249.76 66.49 257.61 73.25 C 264.42 78.69 266.65 87.64 266.94 95.97 C 266.01 118.33 262.01 140.49 256.13 162.07 C 264.03 166.61 271.57 171.75 279.12 176.85 C 264.49 177.15 249.84 176.97 235.21 176.95 C 243.58 154.45 247.58 130.63 250.44 106.89 C 251.01 102.11 251.11 97.27 250.80 92.47 C 250.47 87.11 245.39 82.59 240.02 82.88 C 224.35 82.52 208.93 86.04 193.60 88.89 C 190.30 89.55 186.28 90.11 184.45 93.34 C 182.39 96.68 183.46 100.78 184.98 104.10 C 195.01 127.40 201.87 151.98 206.05 176.98 C 197.34 176.99 188.64 177.07 179.93 176.93 C 168.60 159.79 150.61 147.16 130.57 142.52 C 113.07 138.28 94.21 140.19 77.82 147.60 C 60.43 155.45 45.94 169.54 37.70 186.76 C 30.49 201.46 28.31 218.37 30.70 234.50 C 33.26 251.24 41.32 267.03 53.26 279.01 C 67.57 293.66 87.62 302.58 108.10 303.26 C 128.56 304.31 149.30 297.17 164.78 283.74 C 166.31 282.53 167.71 280.63 169.91 281.00 C 176.71 280.98 183.50 280.99 190.29 281.03 C 185.71 285.70 181.20 290.47 176.93 295.43 C 191.86 292.44 206.31 287.35 220.39 281.62 C 222.48 280.81 224.77 281.07 226.96 280.99 C 237.39 281.09 247.82 280.83 258.25 281.14 C 215.81 304.85 167.61 318.14 119.05 319.80 C 102.45 320.55 85.56 317.77 70.46 310.69 C 49.46 300.96 32.12 283.52 22.61 262.41 C 18.16 252.74 15.48 242.31 14.29 231.75 C 12.27 199.82 18.11 167.99 26.49 137.30 C 31.91 117.14 41.14 98.30 50.97 79.98 C 61.23 60.69 74.23 42.99 88.65 26.63 Z" />
<path fill="#fefefd" d=" M 104.51 32.55 C 107.56 29.56 112.42 29.37 116.21 30.89 C 120.07 33.19 122.96 36.75 125.97 40.02 C 134.43 50.11 141.85 61.02 149.13 71.97 C 150.67 74.33 152.32 77.28 151.19 80.16 C 150.16 83.56 146.87 85.59 143.75 86.83 C 104.49 102.54 68.55 126.33 38.58 156.15 C 38.82 154.51 39.04 152.87 39.34 151.24 C 47.08 117.27 62.97 85.49 83.71 57.62 C 90.25 48.96 96.31 39.76 104.51 32.55 Z" />
<path fill="#fefefd" d=" M 151.78 100.87 C 154.41 99.78 157.16 98.65 160.08 99.03 C 164.47 99.23 167.58 103.12 169.06 106.93 C 175.42 123.42 182.55 139.80 185.78 157.27 C 181.60 153.78 178.00 149.66 173.75 146.26 C 158.90 134.00 140.35 126.20 121.15 124.47 C 116.13 123.85 111.07 123.90 106.03 123.72 C 120.34 114.39 135.88 107.07 151.78 100.87 Z" />
<path fill="#e2491c" d=" M 572.47 149.07 C 579.73 149.07 587.00 149.04 594.26 149.09 C 594.22 190.77 594.29 232.46 594.23 274.14 C 587.37 274.12 580.51 274.12 573.66 274.13 C 573.59 269.84 573.72 265.55 573.55 261.26 C 569.48 266.62 564.49 271.57 558.01 273.86 C 544.95 278.79 529.05 275.78 519.00 265.98 C 511.64 258.70 507.65 248.63 506.30 238.50 C 504.41 223.69 506.76 207.41 516.61 195.66 C 527.12 182.76 546.40 179.11 561.50 185.31 C 565.76 186.89 568.77 190.41 572.38 193.01 C 572.62 178.37 572.44 163.72 572.47 149.07 Z" />
<path fill="#e2491c" d=" M 609.81 149.08 C 617.00 149.02 624.19 149.13 631.38 149.02 C 631.43 155.57 631.36 162.12 631.42 168.67 C 624.19 168.44 616.94 169.35 609.74 168.52 C 609.83 162.04 609.83 155.56 609.81 149.08 Z" />
<path fill="#e2491c" d=" M 707.63 149.06 C 714.89 149.06 722.14 149.08 729.40 149.05 C 729.35 190.74 729.45 232.43 729.35 274.12 C 722.51 274.11 715.67 274.16 708.84 274.12 C 708.78 269.84 708.92 265.56 708.63 261.29 C 704.81 266.51 700.00 271.22 693.87 273.58 C 680.64 278.94 664.32 275.91 654.09 265.88 C 645.47 257.27 641.54 244.97 640.93 233.02 C 640.28 219.46 643.40 205.00 652.64 194.65 C 663.30 182.62 681.84 179.29 696.49 185.26 C 700.81 186.84 703.93 190.27 707.51 192.98 C 707.81 178.35 707.57 163.70 707.63 149.06 Z" />
<path fill="#e2491c" d=" M 121.93 149.90 C 127.48 149.93 133.04 149.78 138.59 149.98 C 138.55 191.33 138.57 232.68 138.59 274.04 C 133.34 274.22 128.08 274.09 122.82 274.13 C 122.77 269.47 122.95 264.81 122.56 260.16 C 118.58 265.98 113.42 271.23 106.68 273.71 C 93.90 278.62 78.33 276.17 68.14 266.87 C 61.37 260.63 57.27 251.90 55.55 242.95 C 52.22 228.17 54.33 211.71 62.89 199.02 C 72.98 183.93 94.75 178.63 110.80 186.88 C 115.24 189.09 118.72 192.76 121.70 196.65 C 122.24 181.08 121.80 165.48 121.93 149.90 Z" />
<path fill="#e2491c" d=" M 170.59 189.45 C 182.10 182.62 196.74 181.01 209.32 185.74 C 216.31 188.35 222.30 193.43 226.15 199.81 C 231.93 209.31 233.59 220.89 232.06 231.81 C 210.42 232.12 188.77 231.70 167.13 232.02 C 167.44 239.33 169.73 246.77 174.78 252.22 C 182.67 260.96 195.76 263.59 206.89 260.62 C 213.17 259.18 218.65 255.69 223.90 252.11 L 224.66 252.26 C 227.02 255.99 229.14 259.89 231.08 263.86 C 220.48 272.46 206.65 277.11 192.98 276.04 C 181.69 275.24 170.49 270.63 162.60 262.38 C 151.65 251.10 147.76 234.09 150.97 218.91 C 153.09 206.96 160.07 195.72 170.59 189.45 Z" />
<path fill="#e2491c" d=" M 248.56 197.48 C 257.28 187.93 270.17 182.66 283.02 182.47 C 295.72 181.90 309.01 185.71 318.39 194.54 C 319.63 195.39 318.43 196.86 317.96 197.79 C 315.24 202.06 312.43 206.27 309.78 210.58 C 303.54 205.03 295.49 201.06 287.01 201.06 C 279.61 200.72 271.98 203.43 266.81 208.83 C 256.02 219.59 256.28 239.18 267.21 249.77 C 273.60 256.09 283.18 258.73 291.96 257.11 C 300.08 255.97 307.35 251.58 313.42 246.25 C 316.22 251.43 319.09 256.58 321.81 261.81 C 302.95 280.27 269.31 281.35 250.09 262.88 C 232.65 245.94 232.07 215.26 248.56 197.48 Z" />
<path fill="#e2491c" d=" M 327.61 193.18 C 339.10 185.46 353.12 181.52 366.96 182.58 C 376.51 183.13 386.37 186.80 392.46 194.46 C 398.42 201.85 400.04 211.74 399.57 220.99 C 399.56 238.68 399.55 256.36 399.57 274.04 C 392.90 274.21 386.23 274.09 379.56 274.14 C 379.42 270.07 379.60 266.00 379.52 261.93 C 376.55 263.87 374.86 267.14 372.07 269.30 C 359.91 279.35 340.05 278.30 328.97 267.10 C 321.60 259.57 319.78 247.43 323.89 237.85 C 326.85 230.82 333.54 226.24 340.38 223.44 C 352.29 218.76 365.26 217.94 377.93 217.81 C 377.94 213.77 377.58 209.42 374.94 206.15 C 371.95 202.14 366.80 200.72 362.04 200.44 C 352.63 200.14 343.66 203.97 335.86 208.93 C 333.15 203.66 330.26 198.48 327.61 193.18 Z" />
<path fill="#e2491c" d=" M 459.09 183.13 C 468.28 181.68 478.57 182.13 486.42 187.69 C 492.70 192.07 495.94 199.61 497.01 206.98 C 498.21 217.26 497.85 227.63 497.90 237.96 C 497.90 248.65 497.88 259.35 497.92 270.05 C 497.91 271.46 497.68 272.85 497.43 274.24 C 490.40 273.82 483.31 274.53 476.31 273.89 C 475.70 271.99 475.92 269.96 475.87 268.00 C 475.94 251.66 475.91 235.32 475.89 218.98 C 475.77 214.06 474.90 208.45 470.88 205.13 C 466.07 201.59 459.55 201.86 454.08 203.48 C 446.15 205.70 439.95 212.36 437.43 220.09 C 435.23 225.80 435.72 232.02 435.60 238.01 C 435.62 249.99 435.50 261.97 435.73 273.95 C 428.38 274.33 421.01 274.03 413.65 274.13 C 413.74 244.28 413.71 214.43 413.67 184.59 C 420.61 184.68 427.56 184.62 434.50 184.61 C 434.45 189.99 434.94 195.36 434.80 200.73 C 440.15 191.98 448.76 184.84 459.09 183.13 Z" />
<path fill="#e2491c" d=" M 778.10 183.15 C 791.84 180.93 806.60 183.69 817.91 192.03 C 825.86 197.77 831.83 206.17 834.58 215.59 C 839.16 231.19 835.63 249.33 824.14 261.13 C 806.24 280.06 773.49 281.17 753.90 264.23 C 745.59 257.13 740.10 246.92 738.69 236.08 C 736.33 220.73 742.09 204.18 754.09 194.17 C 760.88 188.36 769.34 184.70 778.10 183.15 Z" />
<path fill="#e2491c" d=" M 609.80 184.64 C 617.03 184.64 624.26 184.61 631.50 184.58 C 631.62 214.39 631.43 244.19 631.57 274.00 C 624.32 274.29 617.07 274.05 609.82 274.13 C 609.80 244.30 609.85 214.47 609.80 184.64 Z" />
<path fill="#fefefd" d=" M 181.90 198.85 C 189.27 195.38 198.47 195.07 205.59 199.33 C 211.26 202.76 214.51 209.14 215.36 215.58 C 215.58 217.04 216.31 219.77 213.90 219.53 C 198.59 219.62 183.27 219.61 167.95 219.52 C 168.44 210.79 174.12 202.69 181.90 198.85 Z" />
<path fill="#fefefd" d=" M 89.42 198.66 C 94.59 197.02 100.26 197.11 105.39 198.85 C 112.19 201.45 117.21 207.45 119.77 214.13 C 123.29 223.35 123.33 233.69 120.67 243.13 C 118.65 250.00 114.09 256.41 107.44 259.42 C 98.57 263.68 86.97 262.24 80.07 254.98 C 71.95 246.64 70.26 234.06 71.61 222.94 C 72.90 212.59 79.12 202.09 89.42 198.66 Z" />
<path fill="#fefefd" d=" M 546.43 201.60 C 553.00 200.26 560.21 202.21 564.96 207.01 C 570.63 212.77 573.10 221.08 573.02 229.03 C 573.15 236.61 571.45 244.64 566.39 250.52 C 560.28 257.76 549.00 259.82 540.68 255.34 C 533.35 251.51 529.36 243.40 528.25 235.49 C 527.41 228.23 527.77 220.53 531.08 213.88 C 533.99 207.75 539.69 202.88 546.43 201.60 Z" />
<path fill="#fefefd" d=" M 681.46 201.58 C 687.80 200.31 694.82 201.87 699.56 206.40 C 706.01 212.34 708.42 221.44 708.29 229.97 C 708.15 237.71 706.30 246.05 700.56 251.63 C 693.93 258.46 682.43 259.78 674.45 254.59 C 668.09 250.59 664.64 243.26 663.46 236.05 C 662.43 228.00 662.91 219.33 667.09 212.17 C 670.13 206.84 675.39 202.75 681.46 201.58 Z" />
<path fill="#fefefd" d=" M 780.56 201.85 C 786.49 200.48 793.01 200.72 798.56 203.42 C 805.69 206.68 811.10 213.27 813.16 220.81 C 815.59 230.88 813.80 242.56 806.07 249.97 C 796.70 259.59 779.92 260.08 769.96 251.09 C 758.32 241.15 757.33 221.71 767.24 210.24 C 770.69 206.17 775.40 203.21 780.56 201.85 Z" />
<path fill="#fefefd" d=" M 349.02 238.05 C 357.60 232.76 368.20 232.92 377.94 233.15 C 378.66 242.40 374.03 252.08 365.96 256.81 C 360.16 260.21 351.85 259.96 346.97 255.06 C 342.29 250.31 343.17 241.47 349.02 238.05 Z" />
</svg>
