<?xml version="1.0" standalone="no"?>
<!DOCTYPE svg PUBLIC "-//W3C//DTD SVG 20010904//EN"
 "http://www.w3.org/TR/2001/REC-SVG-20010904/DTD/svg10.dtd">
<svg version="1.0" xmlns="http://www.w3.org/2000/svg"
 <!-- width="852.000000pt" height="332.000000pt" viewBox="0 0 852.000000 332.000000" -->
 preserveAspectRatio="xMidYMid meet">

<g transform="translate(0.000000,332.000000) scale(0.100000,-0.100000)"
stroke="none">
<path d="M1035 3168 c-72 -25 -176 -132 -328 -336 -183 -247 -362 -605 -442
-887 -118 -414 -157 -860 -96 -1088 41 -156 119 -298 225 -413 217 -237 481
-337 842 -320 417 19 852 134 1224 322 l125 63 -181 0 -181 1 -108 -40 c-118
-45 -302 -100 -331 -100 -13 0 1 20 51 70 l69 70 -112 0 -113 0 -47 -39 c-70
-59 -159 -107 -263 -143 -90 -31 -100 -32 -249 -33 -135 0 -165 3 -230 23
-281 89 -491 303 -566 577 -25 93 -30 266 -9 366 62 306 295 549 604 631 100
26 276 28 381 3 166 -38 343 -148 447 -277 l55 -68 130 0 129 0 -7 38 c-32
188 -90 396 -162 582 -30 80 -56 160 -56 179 0 43 27 66 97 81 139 30 292 52
393 57 l111 6 33 -30 c31 -27 34 -37 38 -94 8 -126 -58 -511 -122 -713 l-34
-106 222 0 221 1 -116 75 -115 75 32 137 c63 272 85 531 55 637 -20 68 -88
136 -156 156 -113 32 -465 -3 -746 -76 -25 -6 -31 1 -104 112 -115 176 -270
377 -332 433 -31 27 -76 56 -101 65 -51 17 -132 19 -177 3z m147 -173 c44 -30
141 -150 248 -307 62 -90 80 -124 80 -151 0 -45 -17 -58 -131 -108 -332 -144
-669 -363 -919 -599 -41 -38 -75 -70 -76 -70 -1 0 7 35 17 78 80 320 248 656
482 967 162 214 214 248 299 190z m467 -690 c23 -20 45 -64 91 -183 48 -123
120 -344 120 -370 0 -2 -26 20 -57 49 -201 182 -431 278 -672 279 l-66 0 25
20 c76 59 443 228 497 229 20 1 43 -8 62 -24z"/>
<path d="M5730 1610 c0 -121 -3 -220 -6 -220 -3 0 -24 16 -47 35 -64 55 -176
80 -280 64 -194 -31 -321 -187 -334 -414 -14 -231 70 -407 232 -482 52 -24 72
-28 155 -28 84 0 102 3 152 28 32 16 75 48 98 74 l40 46 0 -67 0 -66 100 0
100 0 0 625 0 625 -105 0 -105 0 0 -220z m-132 -326 c94 -47 139 -150 129
-295 -10 -151 -95 -244 -222 -244 -132 0 -217 98 -223 260 -6 141 36 232 129
279 68 33 120 34 187 0z"/>
<path d="M6100 1733 l0 -98 105 -1 105 -2 0 99 0 99 -105 0 -105 0 0 -97z"/>
<path d="M7080 1603 l0 -227 -37 36 c-127 124 -382 104 -514 -39 -130 -142
-157 -410 -60 -607 37 -76 101 -138 179 -174 49 -23 70 -27 152 -27 84 0 102
3 152 28 32 16 75 48 98 74 l40 46 0 -67 0 -66 100 0 100 0 0 625 0 625 -105
0 -105 0 0 -227z m-107 -330 c63 -44 100 -120 105 -215 11 -182 -58 -292 -195
-314 -98 -15 -206 60 -237 165 -20 69 -20 162 0 231 19 64 82 134 139 156 59
21 139 12 188 -23z"/>
<path d="M1220 1585 l0 -236 -31 36 c-119 135 -358 137 -504 4 -72 -66 -112
-148 -133 -271 -15 -87 -15 -103 0 -192 28 -170 98 -274 226 -334 49 -23 70
-27 152 -27 121 0 178 24 250 102 l50 55 0 -71 0 -71 80 0 80 0 0 620 0 620
-85 0 -85 0 0 -235z m-132 -271 c150 -87 186 -382 65 -524 -53 -62 -104 -85
-188 -84 -83 0 -115 15 -172 77 -57 61 -78 129 -78 248 0 90 2 100 35 164 20
39 51 81 72 98 75 60 183 68 266 21z"/>
<path d="M2785 1489 c-124 -13 -209 -54 -292 -141 -86 -92 -123 -189 -123
-324 0 -138 49 -255 145 -343 170 -157 474 -161 667 -9 l37 29 -36 67 c-20 37
-40 71 -44 76 -4 4 -23 -3 -41 -18 -104 -78 -242 -101 -346 -56 -175 76 -219
324 -82 461 102 102 271 103 407 3 22 -16 23 -14 69 56 l46 72 -23 24 c-68 73
-237 118 -384 103z"/>
<path d="M3545 1489 c-33 -5 -86 -18 -119 -29 -56 -19 -146 -66 -146 -76 0 -3
18 -38 40 -78 l40 -73 65 33 c89 45 165 60 231 45 73 -17 124 -76 124 -147 0
-23 -3 -24 -57 -24 -84 0 -241 -26 -305 -50 -127 -47 -198 -137 -198 -251 0
-128 68 -220 194 -262 119 -40 246 -10 333 80 l53 54 0 -66 0 -65 95 0 95 0 0
323 c0 352 -4 383 -56 458 -68 99 -229 152 -389 128z m235 -536 c0 -36 -34
-119 -62 -154 -7 -9 -31 -28 -52 -43 -70 -47 -178 -30 -211 34 -17 33 -20 83
-5 110 28 53 129 88 253 89 l77 1 0 -37z"/>
<path d="M4602 1489 c-88 -15 -173 -66 -218 -131 -15 -21 -31 -38 -35 -38 -5
0 -9 34 -9 75 l0 75 -100 0 -100 0 0 -445 0 -445 108 0 107 0 0 243 c1 285 8
319 84 397 74 77 194 101 261 52 57 -42 60 -59 60 -389 l0 -303 111 0 111 0
-4 343 c-4 314 -6 346 -25 394 -25 62 -52 99 -97 129 -57 39 -166 58 -254 43z"/>
<path d="M7791 1488 c-260 -35 -443 -277 -402 -530 38 -236 235 -398 484 -398
282 0 487 197 487 467 0 141 -36 231 -129 324 -112 111 -268 160 -440 137z
m213 -212 c91 -53 136 -138 136 -256 0 -54 -6 -78 -30 -127 -49 -98 -128 -146
-241 -145 -153 0 -261 114 -262 274 -1 136 71 239 193 279 50 17 155 4 204
-25z"/>
<path d="M1852 1479 c-182 -32 -315 -178 -344 -376 -44 -301 163 -543 464
-543 87 0 207 35 279 81 l61 40 -32 57 c-18 31 -34 59 -36 61 -1 2 -16 -6 -33
-18 -16 -12 -56 -34 -88 -49 -48 -22 -72 -27 -143 -27 -73 0 -93 4 -142 28
-89 44 -146 122 -163 225 l-7 42 325 0 324 0 6 37 c8 44 -7 152 -27 210 -62
175 -240 269 -444 232z m173 -138 c73 -34 121 -101 127 -177 l3 -39 -237 -3
c-230 -2 -238 -2 -238 17 0 53 53 137 110 175 73 48 167 59 235 27z"/>
<path d="M6100 1025 l0 -445 105 0 105 0 0 445 0 445 -105 0 -105 0 0 -445z"/>
</g>
</svg>
